# xmcd CD database file
#
# Track frame offsets:
#	150
#	13492
#	28469
#	41631
#	53721
#	67061
#	79958
#	93211
#	107414
#	121509
#	132426
#	145508
#	158025
#	170678
#	183466
#	197224
#	210474
#	224934
#	239393
#	254262
#
# Disc length: 3586 seconds
#
# Revision: 0
# Processed by: cddbd v1.5.2PL0 Copyright (c) Steve Scherf et al.
# Submitted via: CDex 1.78
#
DISCID=2a0e0014
DTITLE=Billie Holiday - The Centennial Collection
DYEAR=2015
DGENRE=Blues
TTITLE0=What A Little Moonlight Can Do
TTITLE1=These Foolish Things
TTITLE2=Summertime
TTITLE3=Billie's Blues
TTITLE4=I've Got My Love To Keep Me Warm
TTITLE5=Why Was I Born?
TTITLE6=I Must Have That Man
TTITLE7=I'll Get By (As Long As I Have You)
TTITLE8=Mean To Me
TTITLE9=When A Woman Loves A Man
TTITLE10=You Go to My Head
TTITLE11=The Very Thought Of You
TTITLE12=I Can't Get Started
TTITLE13=Them There Eyes
TTITLE14=All Of Me
TTITLE15=God Bless The Child
TTITLE16=Gloomy Sunday
TTITLE17=Strange Fruit
TTITLE18=Fine And Mellow
TTITLE19=Lover Man (Oh, Where Can You Be)
EXTD=YEAR: 2015
EXTT0=
EXTT1=
EXTT2=
EXTT3=
EXTT4=
EXTT5=
EXTT6=
EXTT7=
EXTT8=
EXTT9=
EXTT10=
EXTT11=
EXTT12=
EXTT13=
EXTT14=
EXTT15=
EXTT16=
EXTT17=
EXTT18=
EXTT19=
PLAYORDER=
